<svg width="130" height="112" viewBox="0 0 130 112" fill="none" xmlns="http://www.w3.org/2000/svg">
<path d="M129.401 53.8824C129.18 46.9563 127.843 40.109 125.442 33.5975C121.522 23.0603 114.841 13.7378 106.081 6.58045C103.713 4.63863 101.213 2.86097 98.5965 1.26024C97.3671 0.511323 95.9575 0.0996209 94.5132 0.0675877C93.0689 0.0355546 91.6421 0.384374 90.3799 1.07803C89.1176 1.77168 88.0656 2.78507 87.3323 4.01378C86.599 5.24248 86.211 6.642 86.2082 8.06808C86.2069 9.42237 86.5587 10.7542 87.2297 11.9355C87.9007 13.1167 88.8684 14.1076 90.0396 14.8129C92.0369 16.0319 93.9445 17.3884 95.7484 18.8724C104.952 26.3996 111.004 37.0267 112.734 48.7008C113.003 50.4592 113.169 52.2313 113.233 54.0084C113.666 65.7974 109.678 77.3297 102.032 86.3961L96.8468 92.5358C96.1786 93.3778 95.3458 94.0789 94.398 94.5975C93.4502 95.1161 92.4066 95.4415 91.3291 95.5547C90.2515 95.6678 89.162 95.5663 88.1249 95.2561C87.0878 94.9459 86.1244 94.4335 85.2916 93.749C84.4589 93.0645 83.7738 92.222 83.2769 91.2714C82.7801 90.3207 82.4816 89.2814 82.3991 88.2148C82.3167 87.1482 82.4519 86.0761 82.7969 85.0621C83.1419 84.048 83.6895 83.1127 84.4074 82.3114L89.5799 76.1718C93.2165 71.8722 95.6395 66.7015 96.6042 61.1819C97.4471 56.3356 97.1543 51.3631 95.7484 46.6459C95.5441 45.9651 95.3142 45.2969 95.0588 44.6413C93.1017 39.3798 89.7655 34.7249 85.3908 31.1517C81.0319 27.5517 75.7828 25.1589 70.18 24.2178C67.8224 23.8257 65.4283 23.6905 63.0407 23.8144C63.0118 18.8962 61.45 14.1061 58.5673 10.0946C55.6847 6.0832 51.621 3.04487 46.9282 1.39244C42.2355 -0.259998 37.1413 -0.446424 32.3375 0.858418C27.5337 2.16326 23.2532 4.89615 20.0776 8.68585L14.969 14.8255C7.67368 23.435 2.82557 33.8027 0.920382 44.8683C-0.979197 55.9327 0.0727978 67.2947 3.97278 77.8359C7.89439 88.3691 14.57 97.6903 23.3216 104.853C25.6909 106.798 28.1961 108.576 30.8184 110.173C32.6363 111.208 34.7902 111.506 36.8262 111.004C38.8622 110.502 40.6212 109.239 41.7324 107.481C42.8436 105.724 43.2202 103.61 42.7828 101.583C42.3455 99.5574 41.1284 97.778 39.388 96.6205C37.3899 95.4027 35.4822 94.0461 33.6792 92.561C24.4848 85.0278 18.439 74.403 16.706 62.7326C16.4376 60.9742 16.2713 59.2021 16.2079 57.425C15.7463 45.6431 19.7024 34.1071 27.319 25.0247L32.5042 18.885C33.1725 18.0429 34.0052 17.3419 34.953 16.8233C35.9008 16.3047 36.9444 15.9792 38.0219 15.8661C39.0995 15.753 40.189 15.8545 41.2261 16.1647C42.2631 16.4748 43.2266 16.9873 44.0593 17.6718C44.8921 18.3563 45.5772 19.1988 46.0741 20.1494C46.5709 21.1 46.8694 22.1394 46.9519 23.206C47.0343 24.2726 46.8991 25.3447 46.5541 26.3587C46.2091 27.3727 45.6615 28.3081 44.9436 29.1094L39.835 35.249C36.1769 39.5412 33.7356 44.7132 32.7596 50.2389C32.7596 50.4028 32.7596 50.5667 32.683 50.7306C31.8354 56.1169 32.3937 61.6276 34.305 66.7416C36.2727 72.0009 39.6074 76.6567 43.9742 80.2415C48.3411 83.8264 53.5865 86.2141 59.1837 87.1651C61.5463 87.5513 63.944 87.6865 66.3358 87.5686C66.3647 92.4867 67.9266 97.2769 70.8092 101.288C73.6919 105.3 77.7556 108.338 82.4483 109.991C87.141 111.643 92.2353 111.829 97.039 110.525C101.843 109.22 106.123 106.487 109.299 102.697L114.408 96.5574C124.507 84.5939 129.826 69.398 129.363 53.8319L129.401 53.8824ZM64.6628 71.671C61.4674 71.671 58.3439 70.7357 55.687 68.9833C53.0302 67.2309 50.9595 64.7402 49.7367 61.826C48.5139 58.9119 48.1939 55.7053 48.8173 52.6117C49.4407 49.5181 50.9793 46.6764 53.2388 44.446C55.4982 42.2157 58.377 40.6968 61.5109 40.0814C64.6448 39.4661 67.8932 39.7819 70.8453 40.989C73.7974 42.196 76.3206 44.2401 78.0958 46.8627C79.8711 49.4854 80.8186 52.5688 80.8186 55.723C80.8186 59.9527 79.1165 64.0091 76.0867 66.9999C73.0568 69.9908 68.9476 71.671 64.6628 71.671Z" fill="#2A9FE8"/>
</svg>
